HIERARCHY
ROOT Hips
{
	OFFSET 0.000000 0.000000 0.000000 
	CHANNELS 6 Xposition Yposition Zposition Yrotation Zrotation Xrotation 
	JOINT Lumbar
	{
		OFFSET 0.000000 0.000000 0.000000 
		CHANNELS 3 Zrotation Xrotation Yrotation
		JOINT Neck
		{
			OFFSET 0.000000 0.445665 0.000000 
			CHANNELS 3 Zrotation Xrotation Yrotation
			End Site
			{
				OFFSET 0.000000 0.227535 0.000000 
			}
		}
		JOINT RightShoulder
		{
			OFFSET 0.019635 0.377685 0.194865 
			CHANNELS 3 Zrotation Xrotation Yrotation
			JOINT RightElbow
			{
				OFFSET 0.000000 -0.243375 0.000000 
				CHANNELS 2 Zrotation Yrotation
				JOINT RightWrist
				{
					OFFSET 0.000000 -0.264825 0.000000 
					CHANNELS 2 Zrotation Xrotation
					End Site
					{
						OFFSET 0.006600 -0.176220 0.000990 
					}
				}
			}
		}
		JOINT LeftShoulder
		{
			OFFSET 0.019635 0.377685 -0.194865 
			CHANNELS 3 Zrotation Xrotation Yrotation
			JOINT LeftElbow
			{
				OFFSET 0.000000 -0.243375 0.000000 
				CHANNELS 2 Zrotation Yrotation
				JOINT LeftWrist
				{
					OFFSET 0.000000 -0.264825 0.000000 
					CHANNELS 2 Zrotation Xrotation
					End Site
					{
						OFFSET 0.006600 -0.176220 -0.000990 
					}
				}
			}
		}
	}
	JOINT RightHip
	{
		OFFSET 0.052140 -0.069960 0.075570 
		CHANNELS 3 Zrotation Xrotation Yrotation
		JOINT RightKnee
		{
			OFFSET 0.000000 -0.402270 0.000000 
			CHANNELS 1 Zrotation
			JOINT RightAnkle
			{
				OFFSET 0.000000 -0.404085 0.000000 
				CHANNELS 3 Zrotation Xrotation Yrotation
				End Site
				{
					OFFSET 0.204105 -0.089430 0.008415 
				}
			}
		}
	}
	JOINT LeftHip
	{
		OFFSET 0.052140 -0.069960 -0.075570 
		CHANNELS 3 Zrotation Xrotation Yrotation
		JOINT LeftKnee
		{
			OFFSET 0.000000 -0.402270 0.000000 
			CHANNELS 1 Zrotation
			JOINT LeftAnkle
			{
				OFFSET 0.000000 -0.404085 0.000000 
				CHANNELS 3 Zrotation Xrotation Yrotation
				End Site
				{
					OFFSET 0.204105 -0.089430 -0.008415 
				}
			}
		}
	}
}
MOTION
Frames: 19
Frame Time: 0.02
-0.06224 -0.00634 -0.53264 -122.8465 -32.03731 -2.46713 47.23173 -2.24045 0.34522 -7.88929 12.48095 -0.83079 33.48578 -21.88387 -7.58658 124.59179 52.77789 -48.60912 -1.03862 17.48357 19.79479 4.81464 111.92104 -72.83467 -34.17964 2.70766 48.60375 -1.07298 -0.23354 -63.95321 -7.8722 -4.16857 -2.92643 45.12201 3.70529 6.7548 -29.27005 -6.7749 2.07221 1.68944
-0.06918 -0.00567 -0.52466 -122.18248 -32.16867 -2.8178 46.88505 -2.08787 -0.3278 -8.17398 12.98009 -0.83079 33.49919 -22.17374 -7.91947 125.23249 53.08655 -47.97518 -1.36339 16.50636 19.75183 6.57491 113.27864 -72.00394 -33.87252 2.59182 50.2933 -1.44529 -0.08625 -61.39346 -7.9172 -4.14601 -2.91299 44.53073 4.15155 6.52416 -29.20717 -6.73279 1.98005 1.64044
-0.07629 -0.00523 -0.5169 -121.50065 -32.41368 -3.1324 46.5847 -1.93593 -1.0152 -8.32666 13.48336 -0.83079 33.55719 -22.59088 -8.32531 125.89068 53.88981 -47.23049 -1.81631 15.27815 20.14564 8.6902 114.77112 -71.58994 -33.22572 2.52037 51.8516 -1.98813 0.03855 -57.8448 -7.99307 -4.06298 -2.86502 44.0911 4.65585 6.42656 -29.18428 -6.69712 1.86811 1.58186
-0.08338 -0.00472 -0.50901 -120.83159 -32.61102 -3.45721 46.27299 -1.78432 -1.68709 -8.53492 13.97433 -0.83079 33.56522 -22.91137 -8.65955 126.52728 54.50978 -46.53781 -2.19334 14.16497 20.27398 10.63406 116.18115 -71.0038 -32.80963 2.43344 53.44301 -2.44375 0.21467 -54.70277 -8.05683 -3.99793 -2.82779 43.58323 5.12932 6.25219 -29.14124 -6.65795 1.76817 1.52908
-0.09021 -0.00408 -0.50126 -120.14482 -32.79822 -3.81137 45.92162 -1.62713 -2.40014 -8.76367 14.51179 -0.83079 33.701 -23.39945 -9.15576 127.23134 54.96452 -45.83749 -2.64459 13.03829 20.68636 12.64612 117.69397 -70.33307 -32.08816 2.32556 55.15612 -2.94231 0.2198 -51.69317 -8.11145 -3.97224 -2.81109 43.08291 5.62625 6.1494 -29.10835 -6.62232 1.65468 1.46983
-0.09765 -0.00377 -0.49325 -119.48889 -33.02936 -4.09479 45.66325 -1.48323 -3.0295 -8.91757 14.9525 -0.83079 33.57773 -23.56852 -9.33369 127.78932 55.85623 -45.12837 -2.97094 11.88401 20.61543 14.575 119.01342 -69.93174 -31.90859 2.27084 56.57958 -3.38919 0.56916 -48.20873 -8.19227 -3.85172 -2.74419 42.59705 6.08639 5.92283 -29.06309 -6.58041 1.56561 1.42224
-0.10657 -0.00427 -0.48453 -118.93533 -33.37464 -4.18954 45.65244 -1.37089 -3.42612 -8.89822 15.12428 -0.83079 32.76265 -22.81302 -8.59518 128.01601 58.10815 -44.39387 -2.93155 10.71323 19.04256 16.38342 119.84515 -70.30069 -33.39215 2.36999 57.25059 -3.67644 1.94174 -43.44036 -8.34488 -3.46897 -2.5394 42.13858 6.43135 5.39063 -28.9753 -6.51982 1.5414 1.40518
-0.11614 -0.0051 -0.47552 -118.4109 -33.7562 -4.21462 45.73338 -1.27307 -3.7376 -8.80767 15.19834 -0.83079 31.68041 -21.73599 -7.53778 128.08271 60.74525 -43.65163 -2.76027 9.52613 16.9802 18.06075 120.46465 -70.90646 -35.41388 2.51803 57.6304 -3.90118 3.64804 -38.27213 -8.52161 -2.99568 -2.28671 41.68496 6.73758 4.71974 -28.87382 -6.45264 1.54354 1.40079
-0.12553 -0.0058 -0.4666 -117.86458 -34.10628 -4.27206 45.77039 -1.17238 -4.08589 -8.74868 15.31725 -0.83079 30.69618 -20.8107 -6.63847 128.16921 63.01295 -42.94121 -2.64265 8.34737 15.17841 19.66516 121.12491 -71.32218 -37.13563 2.63252 58.13265 -4.13839 5.15994 -33.43209 -8.68308 -2.5736 -2.06091 41.21021 7.05911 4.06419 -28.77662 -6.38799 1.53895 1.39347
-0.13446 -0.00644 -0.45788 -117.35419 -34.52154 -4.32386 45.81719 -1.05639 -4.44111 -8.68832 15.43442 -0.83079 29.80644 -19.85673 -5.68415 128.47023 66.06983 -42.1396 -2.55591 7.15088 13.22406 21.8309 122.01379 -72.09723 -39.08784 2.79692 58.67317 -4.44898 6.85753 -27.93962 -8.8642 -2.10664 -1.8121 40.81552 7.38806 3.60298 -28.68639 -6.32492 1.51293 1.37459
-0.14449 -0.00728 -0.44868 -116.77609 -34.81087 -4.37317 45.86639 -0.97511 -4.76346 -8.61585 15.53206 -0.83079 28.66321 -18.89639 -4.77019 128.29815 67.62867 -41.48722 -2.37193 5.99691 11.47429 22.80497 122.38849 -72.1782 -40.68187 2.86768 59.06538 -4.5895 8.24022 -23.72288 -9.00914 -1.71281 -1.60051 40.25987 7.69709 2.71686 -28.58119 -6.25767 1.5363 1.38204
-0.15741 -0.00864 -0.43821 -116.00354 -34.71851 -4.41609 45.88457 -0.99147 -4.99773 -8.52612 15.5985 -0.83079 26.82444 -17.89361 -4.02633 126.75547 64.41281 -41.61291 -1.95134 4.91605 10.33159 20.40555 121.271 -70.25691 -41.24924 2.67493 59.12696 -4.27614 8.73952 -23.14266 -9.05324 -1.54029 -1.5019 39.20147 7.91103 0.5637 -28.41244 -6.17425 1.70498 1.46686
-0.1714 -0.01018 -0.42729 -115.16166 -34.50158 -4.46172 45.90387 -1.04127 -5.20448 -8.42767 15.64879 -0.83079 24.75268 -16.91383 -3.33873 124.76114 59.75996 -41.8345 -1.43745 3.89087 9.42382 16.83248 119.66487 -67.6346 -41.42479 2.3854 59.0472 -3.79287 8.89929 -23.861 -9.05905 -1.44542 -1.44293 37.9916 8.11389 -1.99069 -28.23584 -6.08813 1.91989 1.57647
-0.18488 -0.0116 -0.4166 -114.35228 -34.35833 -4.51765 45.93331 -1.07221 -5.43656 -8.33456 15.70733 -0.83079 22.82507 -15.99125 -2.63597 123.04155 56.13854 -41.75762 -0.96514 2.87058 8.45728 13.86845 118.36455 -65.34615 -41.71573 2.13454 59.02943 -3.38625 9.16835 -23.98102 -9.07893 -1.31696 -1.3669 36.8867 8.35568 -4.27636 -28.07666 -6.00717 2.10336 1.66954
-0.19847 -0.01321 -0.4058 -113.5411 -34.14706 -4.52417 45.92401 -1.11905 -5.61444 -8.23261 15.75891 -0.83079 20.7194 -14.77349 -1.87255 121.024 50.99584 -42.70365 -0.48939 1.71379 7.27175 10.57464 116.7075 -62.99132 -42.27704 1.90515 59.01631 -2.97992 9.63316 -24.12601 -9.11359 -1.17764 -1.28486 35.62617 8.45847 -6.92503 -27.84966 -5.90883 2.33084 1.78483
-0.21207 -0.01444 -0.39513 -112.71506 -34.044 -4.63299 45.9907 -1.14063 -5.89612 -8.14851 15.82207 -0.83079 18.94178 -14.17821 -1.26009 119.52067 48.59707 -41.6083 -0.00335 0.86516 6.6039 7.69814 115.67496 -60.61818 -42.19127 1.61079 58.95692 -2.53347 9.61269 -24.52639 -9.10825 -1.08118 -1.22575 34.65795 8.84187 -8.91919 -27.77335 -5.84679 2.47846 1.86018
-0.22562 -0.01465 -0.38485 -111.87998 -34.2992 -5.04267 46.29878 -1.08314 -6.50188 -8.11218 15.9247 -0.83079 18.04734 -15.31463 -0.99147 119.55902 54.80767 -34.27881 0.51346 0.76338 7.31446 6.19718 116.53188 -58.24866 -40.2752 1.13098 58.86511 -2.01797 8.26821 -25.37314 -8.99996 -1.07914 -1.21718 34.49873 10.06016 -8.93586 -28.01935 -5.88003 2.38446 1.81392
-0.23911 -0.01445 -0.37475 -111.02946 -34.66212 -5.55191 46.67696 -0.9991 -7.20703 -8.09547 16.0394 -0.83079 17.50456 -17.07456 -0.88544 120.12883 63.70751 -24.99566 1.03199 0.985 8.5386 5.1692 118.02634 -55.90293 -37.74556 0.59407 58.72227 -1.46867 6.45695 -26.42376 -8.85304 -1.11879 -1.23105 34.64589 11.55008 -8.29138 -28.43462 -5.95081 2.2105 1.7277
-0.25253 -0.01439 -0.36465 -110.1759 -34.9564 -6.00359 47.00159 -0.92808 -7.8478 -8.07219 16.1467 -0.83079 16.85783 -18.53895 -0.74554 120.44923 70.91831 -16.98727 1.53262 1.12032 9.52646 3.96732 119.20073 -53.62536 -35.5846 0.10301 58.56375 -0.9345 4.90291 -27.3439 -8.72482 -1.14321 -1.23702 34.67534 12.87905 -7.99787 -28.83598 -6.00832 2.07904 1.66296
